<svg width="312" height="176" viewBox="0 0 312 176" fill="none" xmlns="http://www.w3.org/2000/svg">
<g filter="url(#filter0_b_2256_11083)">
<path d="M129.357 0H0V152C0 165.255 10.7452 176 24 176H288C301.255 176 312 165.255 312 152V0H180.067C178.612 0 177.272 0.790341 176.567 2.06373L168.234 17.1271C166.925 19.4928 163.696 19.9058 161.834 17.9456L157.215 13.0827C155.518 11.2969 152.627 11.4536 151.133 13.4122L147.677 17.9459C145.906 20.2683 142.324 19.9719 140.96 17.3901L132.893 2.13066C132.2 0.819977 130.839 0 129.357 0Z" fill="#919EAB" fill-opacity="1"/>
</g>
<defs>
<filter id="filter0_b_2256_11083" x="-20" y="-20" width="352" height="216" filterUnits="userSpaceOnUse" color-interpolation-filters="sRGB">
<feFlood flood-opacity="0" result="BackgroundImageFix"/>
<feGaussianBlur in="BackgroundImageFix" stdDeviation="10"/>
<feComposite in2="SourceAlpha" operator="in" result="effect1_backgroundBlur_2256_11083"/>
<feBlend mode="normal" in="SourceGraphic" in2="effect1_backgroundBlur_2256_11083" result="shape"/>
</filter>
</defs>
</svg>
